<svg width="17" height="13" viewBox="0 0 17 13" fill="none" xmlns="http://www.w3.org/2000/svg">
<g clip-path="url(#clip0_4001_12945)">
<path d="M1.08396 7.98471C1.08396 8.65169 1.45426 8.99162 2.12753 8.99162H3.32594V10.0242H2.11406C0.700195 10.0242 0 9.36359 0 8.036V7.03553H1.08396V7.98471ZM1.08396 6.47756H0V3.55304H1.08396V6.47756ZM3.11723 1.03256H2.12753C1.45426 1.03256 1.08396 1.37889 1.08396 2.04588V2.99507H0V1.98816C0 0.666993 0.700195 0 2.11406 0H3.11723V1.03256ZM13.4182 1.98816V2.96941H12.3342V2.04588C12.3342 1.37889 11.9573 1.03256 11.284 1.03256H10.301V0H11.3042C12.7113 0 13.4182 0.666993 13.4182 1.98816ZM9.7085 1.03256H7.00195V0H9.7085V1.03256ZM6.41624 1.03256H3.70297V0H6.41624V1.03256Z" fill="#B5B5B5"/>
<path d="M5.44023 12.993H14.6371C16.0374 12.993 16.7511 12.3259 16.7511 11.0048V4.95692C16.7511 3.63575 16.0374 2.96875 14.6371 2.96875H5.44023C4.02637 2.96875 3.32617 3.63575 3.32617 4.95692V11.0048C3.32617 12.3324 4.02637 12.993 5.44023 12.993ZM5.4537 11.9604C4.78043 11.9604 4.41013 11.6205 4.41013 10.9535V5.01464C4.41013 4.34764 4.78043 4.00131 5.4537 4.00131H14.6169C15.2834 4.00131 15.6672 4.34764 15.6672 5.01464V10.9535C15.6672 11.6205 15.2834 11.9604 14.6169 11.9604H5.4537Z" fill="#B5B5B5"/>
</g>
<defs>
<clipPath id="clip0_4001_12945">
<rect width="17" height="13" fill="white"/>
</clipPath>
</defs>
</svg>
