<svg width="20" height="20" viewBox="0 0 20 20" fill="none" xmlns="http://www.w3.org/2000/svg">
<path d="M9.90821 3.95131C10.0115 3.95131 10.0672 3.8864 10.0831 3.78904C10.3216 2.47465 10.2977 2.40973 11.6809 2.15822C11.7762 2.13387 11.8399 2.07708 11.8399 1.9716C11.8399 1.87424 11.7762 1.80932 11.6809 1.7931C10.2977 1.54158 10.3216 1.47667 10.0831 0.162271C10.0672 0.0649086 10.0115 0 9.90821 0C9.80487 0 9.74923 0.0649086 9.73332 0.162271C9.49485 1.47667 9.51869 1.54158 8.13554 1.7931C8.03221 1.80932 7.97656 1.87424 7.97656 1.9716C7.97656 2.07708 8.03221 2.13387 8.13554 2.15822C9.51869 2.40973 9.49485 2.47465 9.73332 3.78904C9.74923 3.8864 9.80487 3.95131 9.90821 3.95131Z" fill="#5B5B5B"/>
<path d="M6.06042 9.53231C6.21145 9.53231 6.3148 9.42687 6.33069 9.28081C6.61686 7.11446 6.6884 7.11446 8.88236 6.68445C9.0175 6.66011 9.12084 6.56274 9.12084 6.40858C9.12084 6.26254 9.0175 6.15707 8.88236 6.14084C6.6884 5.82441 6.60891 5.75139 6.33069 3.5526C6.3148 3.39845 6.21145 3.29297 6.06042 3.29297C5.91733 3.29297 5.81399 3.39845 5.79014 3.56072C5.53577 5.72704 5.41654 5.71894 3.23847 6.14084C3.10334 6.16518 3 6.26254 3 6.40858C3 6.57086 3.10334 6.66011 3.27027 6.68445C5.43244 7.04144 5.53577 7.09824 5.79014 9.26453C5.81399 9.42687 5.91733 9.53231 6.06042 9.53231Z" fill="#5B5B5B"/>
<path d="M11.4503 18.5088C11.657 18.5088 11.808 18.3546 11.8477 18.1356C12.4122 13.6974 13.0243 13.0159 17.3327 12.529C17.5553 12.5047 17.7063 12.3424 17.7063 12.1233C17.7063 11.9124 17.5553 11.7501 17.3327 11.7258C13.0243 11.239 12.4122 10.5575 11.8477 6.11121C11.808 5.89214 11.657 5.74609 11.4503 5.74609C11.2437 5.74609 11.0926 5.89214 11.0608 6.11121C10.4964 10.5575 9.87639 11.239 5.57589 11.7258C5.34537 11.7501 5.19434 11.9124 5.19434 12.1233C5.19434 12.3424 5.34537 12.5047 5.57589 12.529C9.86843 13.1051 10.4646 13.6974 11.0608 18.1356C11.0926 18.3546 11.2437 18.5088 11.4503 18.5088Z" fill="#5B5B5B"/>
</svg>
