<svg width="10" height="16" viewBox="0 0 10 16" fill="none" xmlns="http://www.w3.org/2000/svg">
<g clip-path="url(#clip0_4001_12932)">
<path d="M0 7.40256C0 10.1741 1.76431 12.1184 4.35968 12.3447V13.9921H1.83243C1.54633 13.9921 1.31472 14.2324 1.31472 14.5294C1.31472 14.8263 1.54633 15.0597 1.83243 15.0597H7.91558C8.20165 15.0597 8.43323 14.8263 8.43323 14.5294C8.43323 14.2324 8.20165 13.9921 7.91558 13.9921H5.3883V12.3447C7.9905 12.1184 9.74798 10.1741 9.74798 7.40256V5.9673C9.74798 5.67035 9.52316 5.43704 9.23709 5.43704C8.95096 5.43704 8.71937 5.67035 8.71937 5.9673V7.36013C8.71937 9.77111 7.20708 11.369 4.8774 11.369C2.54088 11.369 1.02861 9.77111 1.02861 7.36013V5.9673C1.02861 5.67035 0.803814 5.43704 0.510901 5.43704C0.224796 5.43704 0 5.67035 0 5.9673V7.40256ZM4.8774 9.84887C6.23299 9.84887 7.14577 8.79538 7.14577 7.28947V2.55944C7.14577 1.0464 6.23299 0 4.8774 0C3.51499 0 2.60219 1.0464 2.60219 2.55944V7.28947C2.60219 8.79538 3.51499 9.84887 4.8774 9.84887Z" fill="#B5B5B5"/>
</g>
<defs>
<clipPath id="clip0_4001_12932">
<rect width="10" height="16" fill="white"/>
</clipPath>
</defs>
</svg>
